<svg width="24" height="28" viewBox="0 0 24 28" fill="none" xmlns="http://www.w3.org/2000/svg">
<path fill-rule="evenodd" clip-rule="evenodd" d="M11.859 1C14.8633 1 17.2885 3.4252 17.2885 6.42955C17.2885 9.4339 14.8633 11.8591 11.859 11.8591C8.85464 11.8591 6.42944 9.4339 6.42944 6.42955C6.42944 3.4252 8.85464 1 11.859 1ZM11.8591 26.6998C7.49149 26.6998 3.41432 24.5118 1 20.8721C1.0543 17.2705 8.2394 15.2978 11.8591 15.2978C15.4607 15.2978 22.6639 17.2705 22.7182 20.8721C20.3039 24.5118 16.2267 26.6998 11.8591 26.6998Z" fill="white"/>
<path d="M11.8591 26.6998L11.8591 26.1998H11.8591L11.8591 26.6998ZM1 20.8721L0.500057 20.8646L0.497722 21.0194L0.583336 21.1485L1 20.8721ZM22.7182 20.8721L23.1349 21.1485L23.2205 21.0194L23.2182 20.8646L22.7182 20.8721ZM11.859 1.5C14.5872 1.5 16.7885 3.70134 16.7885 6.42955H17.7885C17.7885 3.14906 15.1395 0.5 11.859 0.5V1.5ZM16.7885 6.42955C16.7885 9.15776 14.5872 11.3591 11.859 11.3591V12.3591C15.1395 12.3591 17.7885 9.71005 17.7885 6.42955H16.7885ZM11.859 11.3591C9.13078 11.3591 6.92944 9.15776 6.92944 6.42955H5.92944C5.92944 9.71005 8.5785 12.3591 11.859 12.3591V11.3591ZM6.92944 6.42955C6.92944 3.70134 9.13078 1.5 11.859 1.5V0.5C8.5785 0.5 5.92944 3.14906 5.92944 6.42955H6.92944ZM11.8591 26.1998C7.65908 26.1998 3.73835 24.0957 1.41666 20.5957L0.583336 21.1485C3.09029 24.9278 7.32391 27.1998 11.8591 27.1998L11.8591 26.1998ZM1.49994 20.8796C1.51081 20.1588 1.87617 19.4804 2.55252 18.8465C3.23099 18.2107 4.18832 17.6545 5.28546 17.1956C7.48177 16.277 10.1175 15.7978 11.8591 15.7978V14.7978C9.98099 14.7978 7.21434 15.3049 4.89959 16.2731C3.7412 16.7576 2.66585 17.3698 1.86872 18.1169C1.06948 18.8659 0.516338 19.7846 0.500057 20.8646L1.49994 20.8796ZM11.8591 15.7978C13.5915 15.7978 16.2273 16.2769 18.4261 17.1957C19.5245 17.6546 20.4836 18.2109 21.1635 18.8468C21.8413 19.4809 22.2074 20.1593 22.2183 20.8796L23.2182 20.8646C23.2019 19.7841 22.6472 18.8653 21.8466 18.1165C21.0481 17.3696 19.9711 16.7574 18.8117 16.273C16.4949 15.305 13.7283 14.7978 11.8591 14.7978V15.7978ZM22.3015 20.5957C19.9799 24.0957 16.0591 26.1998 11.8591 26.1998L11.8591 27.1998C16.3943 27.1998 20.6279 24.9278 23.1349 21.1485L22.3015 20.5957Z" fill="#DB3022"/>
</svg>
