<svg width="24" height="30" viewBox="0 0 24 30" fill="none" xmlns="http://www.w3.org/2000/svg">
<path d="M17.5 3.75H20.25C20.9793 3.75 21.6788 4.03973 22.1945 4.55546C22.7103 5.07118 23 5.77065 23 6.5V25.75C23 26.4793 22.7103 27.1788 22.1945 27.6945C21.6788 28.2103 20.9793 28.5 20.25 28.5H3.75C3.02065 28.5 2.32118 28.2103 1.80546 27.6945C1.28973 27.1788 1 26.4793 1 25.75V6.5C1 5.77065 1.28973 5.07118 1.80546 4.55546C2.32118 4.03973 3.02065 3.75 3.75 3.75H6.5" stroke="#DB3022" stroke-width="2" stroke-linecap="round" stroke-linejoin="round"/>
<path d="M16.125 1H7.875C7.11561 1 6.5 1.61561 6.5 2.375V5.125C6.5 5.88439 7.11561 6.5 7.875 6.5H16.125C16.8844 6.5 17.5 5.88439 17.5 5.125V2.375C17.5 1.61561 16.8844 1 16.125 1Z" stroke="#DB3022" stroke-width="2" stroke-linecap="round" stroke-linejoin="round"/>
</svg>
