<svg width="24" height="24" viewBox="0 0 24 24" fill="none" xmlns="http://www.w3.org/2000/svg">
<path d="M14.2436 7.49698H3.74775C3.54891 7.49698 3.35823 7.418 3.21763 7.2774C3.07703 7.1368 2.99805 6.94611 2.99805 6.74728V3.74848C2.99805 3.54965 3.07703 3.35896 3.21763 3.21836C3.35823 3.07777 3.54891 2.99878 3.74775 2.99878H14.2436C14.4424 2.99878 14.6331 3.07777 14.7737 3.21836C14.9143 3.35896 14.9933 3.54965 14.9933 3.74848V6.74728C14.9933 6.94611 14.9143 7.1368 14.7737 7.2774C14.6331 7.418 14.4424 7.49698 14.2436 7.49698ZM4.49745 5.99758H13.4939V4.4532H4.49745V5.99758Z" fill="#DB3022"/>
<path d="M14.2436 9.0564H3.74775C3.54891 9.0564 3.35823 9.13538 3.21763 9.27598C3.07703 9.41657 2.99805 9.60726 2.99805 9.8061V12.7449C2.99805 12.9438 3.07703 13.1344 3.21763 13.275C3.35823 13.4156 3.54891 13.4946 3.74775 13.4946H12.2643L14.9933 10.7207V9.8061C14.9933 9.60726 14.9143 9.41657 14.7737 9.27598C14.6331 9.13538 14.4424 9.0564 14.2436 9.0564ZM13.4939 11.9952H4.49745V10.4958H13.4939V11.9952Z" fill="#DB3022"/>
<path d="M6.79229 22.1237V22.0787L7.03219 21.0366H1.4994V1.4994H16.4934V9.18383L17.9928 7.7669V0.7497C17.9928 0.550868 17.9138 0.360178 17.7732 0.219582C17.6326 0.078986 17.4419 0 17.2431 0H0.7497C0.550868 0 0.360178 0.078986 0.219582 0.219582C0.078986 0.360178 0 0.550868 0 0.7497V21.7413C0 21.9401 0.078986 22.1308 0.219582 22.2714C0.360178 22.412 0.550868 22.491 0.7497 22.491H6.7473C6.75348 22.3676 6.76851 22.2449 6.79229 22.1237Z" fill="#DB3022"/>
<path d="M14.993 12.8723L14.4082 13.4646C14.5533 13.4347 14.6863 13.3625 14.7903 13.257C14.8944 13.1516 14.9649 13.0178 14.993 12.8723Z" fill="#DB3022"/>
<path d="M2.99805 18.6977C2.99805 18.8965 3.07703 19.0872 3.21763 19.2278C3.35823 19.3684 3.54891 19.4474 3.74775 19.4474H7.3763L7.60121 18.4728L7.69867 18.0604V18.0229H4.49745V16.4935H9.25055L10.7499 14.9941H3.74775C3.54891 14.9941 3.35823 15.0731 3.21763 15.2137C3.07703 15.3543 2.99805 15.545 2.99805 15.7438V18.6977Z" fill="#DB3022"/>
<path d="M23.6083 10.9983L21.0819 8.47176C20.9697 8.35933 20.8365 8.27013 20.6899 8.20926C20.5432 8.1484 20.386 8.11707 20.2272 8.11707C20.0684 8.11707 19.9112 8.1484 19.7645 8.20926C19.6179 8.27013 19.4847 8.35933 19.3725 8.47176L9.09415 18.8101L8.24699 22.4162C8.21527 22.5718 8.21456 22.7321 8.24489 22.8879C8.27522 23.0438 8.336 23.1921 8.42375 23.3244C8.5115 23.4567 8.62449 23.5704 8.75625 23.659C8.88801 23.7476 9.03596 23.8093 9.19161 23.8406C9.26888 23.8484 9.34674 23.8484 9.42402 23.8406C9.51587 23.8556 9.60955 23.8556 9.7014 23.8406L13.3375 23.0384L23.6083 12.7451C23.7206 12.6336 23.8096 12.501 23.8704 12.355C23.9311 12.2089 23.9624 12.0523 23.9624 11.8941C23.9624 11.736 23.9311 11.5794 23.8704 11.4333C23.8096 11.2873 23.7206 11.1547 23.6083 11.0432V10.9983ZM12.5728 21.674L9.82885 22.2812L10.4961 19.5598L18.203 11.7704L20.3172 13.8846L12.5728 21.674ZM21.1643 13.0374L19.0502 10.9233L20.2422 9.74625L22.3713 11.8754L21.1643 13.0374Z" fill="#DB3022"/>
</svg>
