<svg width="40" height="20" viewBox="0 0 40 20" fill="none" xmlns="http://www.w3.org/2000/svg">
<g clip-path="url(#clip0)">
<path fill-rule="evenodd" clip-rule="evenodd" d="M14.4414 17.8362H25.1471V2.13501H14.4414V17.8362Z" fill="#FF5F00"/>
<path fill-rule="evenodd" clip-rule="evenodd" d="M15.1222 9.98559C15.1222 6.80019 16.9497 3.96317 19.7954 2.13497C17.714 0.797738 15.0882 0 12.2341 0C5.47724 0 0 4.47077 0 9.98559C0 15.5004 5.47724 19.9712 12.2341 19.9712C15.0882 19.9712 17.714 19.1734 19.7954 17.8362C16.9497 16.0077 15.1222 13.171 15.1222 9.98559Z" fill="#EB001B"/>
<path fill-rule="evenodd" clip-rule="evenodd" d="M39.2083 16.1732V15.7857H39.0842L38.9418 16.0523L38.7991 15.7857H38.675V16.1732H38.7624V15.8809L38.8963 16.133H38.987L39.1209 15.8803V16.1732H39.2083ZM38.4229 16.1732V15.8517H38.5819V15.7863H38.1775V15.8517H38.3362V16.1732H38.4229ZM39.5903 9.98547C39.5903 15.5003 34.1127 19.9711 27.3562 19.9711C24.502 19.9711 21.8759 19.1733 19.7949 17.8361C22.6406 16.0079 24.468 13.1709 24.468 9.98547C24.468 6.80034 22.6406 3.96333 19.7949 2.13485C21.8759 0.797616 24.502 -0.00012207 27.3562 -0.00012207C34.1127 -0.00012207 39.5903 4.47065 39.5903 9.98547Z" fill="#F79E1B"/>
</g>
<defs>
<clipPath id="clip0">
<rect width="40" height="20" fill="white"/>
</clipPath>
</defs>
</svg>
