<svg width="30" height="32" viewBox="0 0 30 32" fill="none" xmlns="http://www.w3.org/2000/svg">
<path fill-rule="evenodd" clip-rule="evenodd" d="M28.125 23.5V10.375L18.75 1H9.375C8.38044 1 7.42661 1.39509 6.72335 2.09835C6.02009 2.80161 5.625 3.75544 5.625 4.75V23.5C5.625 24.4946 6.02009 25.4484 6.72335 26.1516C7.42661 26.8549 8.38044 27.25 9.375 27.25H24.375C25.3696 27.25 26.3234 26.8549 27.0266 26.1516C27.7299 25.4484 28.125 24.4946 28.125 23.5Z" stroke="#DB3022" stroke-width="2" stroke-linecap="round" stroke-linejoin="round"/>
<path d="M16.875 8.5V16H22.5" stroke="#DB3022" stroke-width="2" stroke-linecap="round" stroke-linejoin="round"/>
<path d="M5.625 4.75C4.63044 4.75 3.67661 5.14509 2.97335 5.84835C2.27009 6.55161 1.875 7.50544 1.875 8.5V27.25C1.875 28.2446 2.27009 29.1984 2.97335 29.9016C3.67661 30.6049 4.63044 31 5.625 31H20.625C21.6196 31 22.5734 30.6049 23.2766 29.9016C23.9799 29.1984 24.375 28.2446 24.375 27.25" stroke="#DB3022" stroke-width="2" stroke-linecap="round" stroke-linejoin="round"/>
</svg>
