<svg width="28" height="28" viewBox="0 0 28 28" fill="none" xmlns="http://www.w3.org/2000/svg">
<path d="M14.0879 7.875C10.6754 7.875 7.96289 10.5875 7.96289 14C7.96289 17.4125 10.6754 20.125 14.0879 20.125C17.5004 20.125 20.2129 17.4125 20.2129 14C20.2129 10.5875 17.5004 7.875 14.0879 7.875ZM14.0879 18.375C11.6379 18.375 9.71289 16.45 9.71289 14C9.71289 11.55 11.6379 9.625 14.0879 9.625C16.5379 9.625 18.4629 11.55 18.4629 14C18.4629 16.45 16.5379 18.375 14.0879 18.375Z" fill="#DB3022"/>
<path d="M26.95 11.1125L24.5 10.325L23.975 9.0125L25.2 6.7375C25.4625 6.2125 25.375 5.5125 24.9375 5.075L22.8375 2.975C22.4 2.5375 21.7 2.45 21.175 2.7125L18.9 3.9375L17.5875 3.4125L16.8 0.9625C16.625 0.4375 16.1 0 15.4875 0H12.5125C11.9 0 11.375 0.4375 11.2875 1.05L10.5 3.5C9.975 3.5875 9.5375 3.7625 9.1 4.025L6.825 2.8C6.3 2.5375 5.6 2.625 5.1625 3.0625L3.0625 5.1625C2.625 5.6 2.5375 6.3 2.8 6.825L3.9375 9.0125C3.7625 9.45 3.5875 9.975 3.4125 10.4125L0.9625 11.2C0.4375 11.375 0 11.9 0 12.5125V15.4875C0 16.1 0.4375 16.625 1.05 16.8L3.5 17.5875L4.025 18.9L2.8 21.175C2.5375 21.7 2.625 22.4 3.0625 22.8375L5.1625 24.9375C5.6 25.375 6.3 25.4625 6.825 25.2L9.1 23.975L10.4125 24.5L11.2 27.0375C11.375 27.5625 11.9 28 12.5125 28H15.4875C16.1 28 16.625 27.5625 16.8 27.0375L17.5875 24.5L18.9 23.975L21.175 25.2C21.7 25.4625 22.4 25.375 22.8375 24.9375L24.9375 22.8375C25.375 22.4 25.4625 21.7 25.2 21.175L23.975 18.9L24.5 17.5875L27.0375 16.8C27.5625 16.625 28 16.1 28 15.4875V12.5125C28 11.9 27.5625 11.2875 26.95 11.1125ZM26.25 15.225L23.1 16.1875L23.0125 16.625L22.225 18.4625L21.9625 18.9L23.5375 21.7875L21.7875 23.5375L18.9 21.9625L18.4625 22.225C17.85 22.575 17.2375 22.8375 16.625 23.0125L16.1875 23.1L15.225 26.25H12.775L11.8125 23.1L11.375 23.0125L9.5375 22.225L9.1 21.9625L6.2125 23.5375L4.4625 21.7875L6.0375 18.9L5.775 18.4625C5.425 17.85 5.1625 17.2375 4.9875 16.625L4.9 16.1875L1.75 15.225V12.775L4.725 11.9L4.9 11.4625C5.075 10.7625 5.3375 10.15 5.6875 9.5375L5.95 9.1L4.4625 6.2125L6.2125 4.4625L9.0125 6.0375L9.45 5.775C10.0625 5.425 10.675 5.1625 11.375 4.9875L11.8125 4.8125L12.775 1.75H15.225L16.1875 4.8125L16.625 4.9875C17.2375 5.1625 17.85 5.425 18.4625 5.775L18.9 6.0375L21.7875 4.4625L23.5375 6.2125L21.9625 9.1L22.225 9.5375C22.575 10.15 22.8375 10.7625 23.0125 11.375L23.1 11.8125L26.25 12.775V15.225Z" fill="#DB3022"/>
</svg>
