<svg width="26" height="25" viewBox="0 0 26 25" fill="none" xmlns="http://www.w3.org/2000/svg">
<path opacity="0.5" d="M18.0554 12.5L25.1577 19.6023C25.5838 20.0284 25.7969 20.5966 25.7969 21.1648C25.7969 21.804 25.5838 22.3722 25.1577 22.7983L23.5952 24.3608C23.098 24.7869 22.5298 25 21.9616 25C21.3224 25 20.8253 24.7869 20.3991 24.3608L13.2969 17.2585L6.1946 24.3608C5.76847 24.7869 5.20028 25 4.6321 25C3.9929 25 3.42472 24.7869 2.99858 24.3608L1.43608 22.7983C1.00994 22.3722 0.796875 21.804 0.796875 21.1648C0.796875 20.5966 1.00994 20.0284 1.43608 19.6023L8.53835 12.5L1.43608 5.39773C1.00994 4.97159 0.796875 4.47443 0.796875 3.83523C0.796875 3.26705 1.00994 2.69886 1.43608 2.2017L2.99858 0.639205C3.42472 0.213068 3.9929 0 4.6321 0C5.20028 0 5.76847 0.213068 6.1946 0.639205L13.2969 7.74148L20.3991 0.639205C20.8253 0.213068 21.3224 0 21.9616 0C22.5298 0 23.098 0.213068 23.5952 0.639205L25.1577 2.2017C25.5838 2.69886 25.7969 3.26705 25.7969 3.83523C25.7969 4.47443 25.5838 4.97159 25.1577 5.39773L18.0554 12.5Z" fill="#DB3022"/>
</svg>
