<svg width="40" height="17" viewBox="0 0 40 17" fill="none" xmlns="http://www.w3.org/2000/svg">
<g clip-path="url(#clip0)">
<path d="M17.334 16.7548H14.0938L16.1205 0.29834H19.3606L17.334 16.7548Z" fill="#00579F"/>
<path d="M29.0793 0.700494C28.4402 0.367521 27.4265 -0.00012207 26.1731 -0.00012207C22.9732 -0.00012207 20.7198 2.24064 20.706 5.44425C20.6794 7.80787 22.3193 9.12068 23.5459 9.90879C24.7995 10.7141 25.2256 11.2398 25.2256 11.9576C25.2129 13.0601 24.2126 13.5682 23.2797 13.5682C21.986 13.5682 21.2929 13.3062 20.2395 12.6929L19.8128 12.4299L19.3594 16.1241C20.1193 16.5787 21.5195 16.9822 22.9732 16.9999C26.3731 16.9999 28.5866 14.7938 28.6128 11.3798C28.6257 9.50648 27.7598 8.07104 25.8929 6.89807C24.7596 6.1451 24.0656 5.63738 24.0656 4.86696C24.0788 4.16658 24.6526 3.44921 25.9319 3.44921C26.9853 3.41407 27.7593 3.74658 28.3456 4.07932L28.6387 4.25407L29.0793 0.700494Z" fill="#00579F"/>
<path d="M33.3863 10.9249C33.6531 9.97946 34.68 6.32048 34.68 6.32048C34.6665 6.35561 34.9463 5.35762 35.1063 4.74496L35.3327 6.16295C35.3327 6.16295 35.9463 10.1021 36.0796 10.9249C35.5732 10.9249 34.0263 10.9249 33.3863 10.9249ZM37.386 0.29834H34.8796C34.1067 0.29834 33.5195 0.595712 33.1861 1.66374L28.373 16.7546H31.773C31.773 16.7546 32.3327 14.7234 32.453 14.286C32.826 14.286 36.1334 14.286 36.6133 14.286C36.7063 14.8638 36.9999 16.7546 36.9999 16.7546H40.0001L37.386 0.29834Z" fill="#00579F"/>
<path d="M11.3867 0.29834L8.21339 11.5201L7.86662 9.24417C7.27995 6.61808 5.44 3.76489 3.38672 2.34621L6.29335 16.7373H9.71986L14.813 0.29834H11.3867Z" fill="#00579F"/>
<path d="M5.26663 0.29834H0.0533341L0 0.630847C4.0667 1.99648 6.75999 5.28828 7.86654 9.24487L6.73323 1.68166C6.54665 0.630615 5.97326 0.33301 5.26663 0.29834Z" fill="#FAA61A"/>
</g>
<defs>
<clipPath id="clip0">
<rect width="40" height="17" fill="white"/>
</clipPath>
</defs>
</svg>
